<?xml version="1.0" standalone="yes"?>

<svg version="1.1" viewBox="0.0 0.0 1282.0 361.0" fill="none" stroke="none" stroke-linecap="square" stroke-miterlimit="10" clip-path="url(#clip0)" xmlns="http://www.w3.org/2000/svg" xmlns:xlink="http://www.w3.org/1999/xlink"><clipPath id="clip0"><path d="M0 0L1282.0 0L1282.0 361.0L0 361.0L0 0Z" clip-rule="nonzero"></path></clipPath><path d="M333.23358 50.645668L615.91077 50.645668L615.91077 196.15749L333.23358 196.15749Z" fill-rule="nonzero" fill="#cfe2f3" stroke="#073763" stroke-width="2.0" stroke-linejoin="round" stroke-linecap="butt"></path><path d="M52.225723 94.979004L321.23358 94.979004" fill-rule="evenodd" stroke="#073763" stroke-width="2.0" stroke-linejoin="round" stroke-linecap="butt"></path><path d="M321.23358 98.28247L330.30978 94.979004L321.23358 91.67554Z" fill-rule="evenodd" fill="#073763" stroke="#073763" stroke-width="2.0" stroke-linecap="butt"></path><path d="M119.7336 76.22379Q119.7336 73.48942 121.26485 72.16129Q122.53047 71.06754 124.3586 71.06754Q126.38985 71.06754 127.67891 72.40348Q128.96797 73.73942 128.96797 76.08317Q128.96797 77.98942 128.39766 79.075356Q127.82735 80.16129 126.74141 80.762856Q125.65547 81.36442 124.3586 81.36442Q122.2961 81.36442 121.01485 80.03629Q119.7336 78.70817 119.7336 76.22379ZM121.45235 76.22379Q121.45235 78.11442 122.28047 79.05192Q123.1086 79.98942 124.3586 79.98942Q125.6086 79.98942 126.42891 79.044106Q127.24922 78.09879 127.24922 76.16129Q127.24922 74.33317 126.4211 73.39567Q125.59297 72.45817 124.3586 72.45817Q123.1086 72.45817 122.28047 73.39567Q121.45235 74.33317 121.45235 76.22379ZM132.28047 81.14567L130.7336 81.14567L130.7336 67.55192L132.38985 67.55192L132.38985 72.39567Q133.45235 71.06754 135.09297 71.06754Q135.99922 71.06754 136.81172 71.43473Q137.62422 71.80192 138.14766 72.46598Q138.6711 73.13004 138.96797 74.06754Q139.26485 75.00504 139.26485 76.06754Q139.26485 78.59879 138.01485 79.981606Q136.76485 81.36442 135.01485 81.36442Q133.26485 81.36442 132.28047 79.91129L132.28047 81.14567ZM132.26485 76.14567Q132.26485 77.91129 132.7336 78.70817Q133.53047 79.98942 134.87422 79.98942Q135.96797 79.98942 136.76485 79.044106Q137.56172 78.09879 137.56172 76.20817Q137.56172 74.28629 136.7961 73.36442Q136.03047 72.44254 134.95235 72.44254Q133.8586 72.44254 133.06172 73.39567Q132.26485 74.34879 132.26485 76.14567ZM141.09297 81.14567L141.09297 71.28629L142.59297 71.28629L142.59297 72.78629Q143.1711 71.73942 143.65547 71.40348Q144.13985 71.06754 144.7336 71.06754Q145.57735 71.06754 146.45235 71.61442L145.87422 73.16129Q145.26485 72.80192 144.63985 72.80192Q144.09297 72.80192 143.66328 73.13004Q143.2336 73.45817 143.0461 74.03629Q142.76485 74.92692 142.76485 75.98942L142.76485 81.14567L141.09297 81.14567ZM153.76485 79.92692Q152.82735 80.72379 151.96797 81.044106Q151.1086 81.36442 150.12422 81.36442Q148.51485 81.36442 147.63985 80.575356Q146.76485 79.78629 146.76485 78.55192Q146.76485 77.81754 147.09297 77.22379Q147.4211 76.63004 147.95235 76.27067Q148.4836 75.91129 149.15547 75.72379Q149.65547 75.58317 150.63985 75.47379Q152.6711 75.22379 153.62422 74.89567Q153.62422 74.55192 153.62422 74.45817Q153.62422 73.44254 153.15547 73.02067Q152.51485 72.45817 151.24922 72.45817Q150.07735 72.45817 149.51485 72.86442Q148.95235 73.27067 148.68672 74.33317L147.0461 74.09879Q147.28047 73.05192 147.78828 72.41129Q148.2961 71.77067 149.25703 71.419106Q150.21797 71.06754 151.49922 71.06754Q152.76485 71.06754 153.5461 71.36442Q154.32735 71.66129 154.70235 72.11442Q155.07735 72.56754 155.21797 73.25504Q155.31172 73.67692 155.31172 74.78629L155.31172 77.02067Q155.31172 79.34879 155.41328 79.96598Q155.51485 80.58317 155.84297 81.14567L154.09297 81.14567Q153.82735 80.63004 153.76485 79.92692ZM153.62422 76.20817Q152.71797 76.56754 150.88985 76.83317Q149.8586 76.97379 149.43672 77.16129Q149.01485 77.34879 148.78047 77.70817Q148.5461 78.06754 148.5461 78.50504Q148.5461 79.17692 149.05391 79.62223Q149.56172 80.06754 150.53047 80.06754Q151.49922 80.06754 152.24922 79.637856Q152.99922 79.20817 153.3586 78.48942Q153.62422 77.91129 153.62422 76.81754L153.62422 76.20817ZM150.13985 70.06754L151.37422 67.47379L153.56172 67.47379L151.51485 70.06754L150.13985 70.06754ZM156.82735 81.14567L156.82735 79.78629L163.09297 72.59879Q162.03047 72.64567 161.21797 72.64567L157.20235 72.64567L157.20235 71.28629L165.24922 71.28629L165.24922 72.39567L159.90547 78.64567L158.88985 79.78629Q159.99922 79.70817 160.9836 79.70817L165.5461 79.70817L165.5461 81.14567L156.82735 81.14567ZM173.78047 77.97379L175.49922 78.19254Q175.09297 79.69254 173.99141 80.52848Q172.88985 81.36442 171.1711 81.36442Q169.01485 81.36442 167.74922 80.03629Q166.4836 78.70817 166.4836 76.30192Q166.4836 73.81754 167.75703 72.44254Q169.03047 71.06754 171.07735 71.06754Q173.06172 71.06754 174.31172 72.41129Q175.56172 73.75504 175.56172 76.20817Q175.56172 76.34879 175.5461 76.64567L168.20235 76.64567Q168.2961 78.27067 169.12422 79.13004Q169.95235 79.98942 171.18672 79.98942Q172.09297 79.98942 172.74141 79.512856Q173.38985 79.03629 173.78047 77.97379ZM168.2961 75.27067L173.7961 75.27067Q173.68672 74.03629 173.1711 73.41129Q172.37422 72.44254 171.09297 72.44254Q169.95235 72.44254 169.16328 73.21598Q168.37422 73.98942 168.2961 75.27067ZM177.4211 81.14567L177.4211 67.55192L179.09297 67.55192L179.09297 75.30192L183.0461 71.28629L185.20235 71.28629L181.43672 74.94254L185.57735 81.14567L183.51485 81.14567L180.26485 76.11442L179.09297 77.23942L179.09297 81.14567L177.4211 81.14567ZM191.03047 81.14567L191.03047 79.78629L197.2961 72.59879Q196.2336 72.64567 195.4211 72.64567L191.40547 72.64567L191.40547 71.28629L199.45235 71.28629L199.45235 72.39567L194.1086 78.64567L193.09297 79.78629Q194.20235 79.70817 195.18672 79.70817L199.74922 79.70817L199.74922 81.14567L191.03047 81.14567ZM206.43672 81.14567L206.43672 67.55192L208.1086 67.55192L208.1086 75.30192L212.06172 71.28629L214.21797 71.28629L210.45235 74.94254L214.59297 81.14567L212.53047 81.14567L209.28047 76.11442L208.1086 77.23942L208.1086 81.14567L206.43672 81.14567ZM222.18672 79.92692Q221.24922 80.72379 220.38985 81.044106Q219.53047 81.36442 218.5461 81.36442Q216.93672 81.36442 216.06172 80.575356Q215.18672 79.78629 215.18672 78.55192Q215.18672 77.81754 215.51485 77.22379Q215.84297 76.63004 216.37422 76.27067Q216.90547 75.91129 217.57735 75.72379Q218.07735 75.58317 219.06172 75.47379Q221.09297 75.22379 222.0461 74.89567Q222.0461 74.55192 222.0461 74.45817Q222.0461 73.44254 221.57735 73.02067Q220.93672 72.45817 219.6711 72.45817Q218.49922 72.45817 217.93672 72.86442Q217.37422 73.27067 217.1086 74.33317L215.46797 74.09879Q215.70235 73.05192 216.21016 72.41129Q216.71797 71.77067 217.67891 71.419106Q218.63985 71.06754 219.9211 71.06754Q221.18672 71.06754 221.96797 71.36442Q222.74922 71.66129 223.12422 72.11442Q223.49922 72.56754 223.63985 73.25504Q223.7336 73.67692 223.7336 74.78629L223.7336 77.02067Q223.7336 79.34879 223.83516 79.96598Q223.93672 80.58317 224.26485 81.14567L222.51485 81.14567Q222.24922 80.63004 222.18672 79.92692ZM222.0461 76.20817Q221.13985 76.56754 219.31172 76.83317Q218.28047 76.97379 217.8586 77.16129Q217.43672 77.34879 217.20235 77.70817Q216.96797 78.06754 216.96797 78.50504Q216.96797 79.17692 217.47578 79.62223Q217.9836 80.06754 218.95235 80.06754Q219.9211 80.06754 220.6711 79.637856Q221.4211 79.20817 221.78047 78.48942Q222.0461 77.91129 222.0461 76.81754L222.0461 76.20817ZM226.12422 81.14567L226.12422 71.28629L227.62422 71.28629L227.62422 72.67692Q228.07735 71.95817 228.85078 71.512856Q229.62422 71.06754 230.6086 71.06754Q231.70235 71.06754 232.40547 71.52067Q233.1086 71.97379 233.38985 72.80192Q234.56172 71.06754 236.43672 71.06754Q237.90547 71.06754 238.69453 71.88004Q239.4836 72.69254 239.4836 74.38004L239.4836 81.14567L237.81172 81.14567L237.81172 74.94254Q237.81172 73.94254 237.65547 73.49723Q237.49922 73.05192 237.06953 72.78629Q236.63985 72.52067 236.06172 72.52067Q235.03047 72.52067 234.34297 73.20817Q233.65547 73.89567 233.65547 75.42692L233.65547 81.14567L231.9836 81.14567L231.9836 74.73942Q231.9836 73.63004 231.57735 73.075356Q231.1711 72.52067 230.2336 72.52067Q229.53047 72.52067 228.92891 72.887856Q228.32735 73.25504 228.06172 73.97379Q227.7961 74.69254 227.7961 76.03629L227.7961 81.14567L226.12422 81.14567ZM248.4211 77.97379L250.13985 78.19254Q249.7336 79.69254 248.63203 80.52848Q247.53047 81.36442 245.81172 81.36442Q243.65547 81.36442 242.38985 80.03629Q241.12422 78.70817 241.12422 76.30192Q241.12422 73.81754 242.39766 72.44254Q243.6711 71.06754 245.71797 71.06754Q247.70235 71.06754 248.95235 72.41129Q250.20235 73.75504 250.20235 76.20817Q250.20235 76.34879 250.18672 76.64567L242.84297 76.64567Q242.93672 78.27067 243.76485 79.13004Q244.59297 79.98942 245.82735 79.98942Q246.7336 79.98942 247.38203 79.512856Q248.03047 79.03629 248.4211 77.97379ZM242.93672 75.27067L248.43672 75.27067Q248.32735 74.03629 247.81172 73.41129Q247.01485 72.44254 245.7336 72.44254Q244.59297 72.44254 243.80391 73.21598Q243.01485 73.98942 242.93672 75.27067ZM252.03047 81.14567L252.03047 71.28629L253.53047 71.28629L253.53047 72.78629Q254.1086 71.73942 254.59297 71.40348Q255.07735 71.06754 255.6711 71.06754Q256.51483 71.06754 257.38983 71.61442L256.8117 73.16129Q256.20233 72.80192 255.57735 72.80192Q255.03047 72.80192 254.60078 73.13004Q254.1711 73.45817 253.9836 74.03629Q253.70235 74.92692 253.70235 75.98942L253.70235 81.14567L252.03047 81.14567ZM258.1867 84.94254L258.01483 83.38004Q258.5617 83.52067 258.96796 83.52067Q259.51483 83.52067 259.85077 83.33317Q260.1867 83.14567 260.40546 82.81754Q260.5617 82.56754 260.90546 81.56754Q260.95233 81.42692 261.0617 81.16129L257.32733 71.28629L259.1242 71.28629L261.17108 77.00504Q261.57733 78.08317 261.88983 79.28629Q262.17108 78.13004 262.57733 77.03629L264.67108 71.28629L266.34296 71.28629L262.59296 81.31754Q261.9992 82.94254 261.65546 83.55192Q261.21796 84.38004 260.63983 84.762856Q260.0617 85.14567 259.26483 85.14567Q258.78046 85.14567 258.1867 84.94254Z" fill-rule="nonzero" fill="#000000"></path><path d="M615.91077 123.40157L903.2808 123.40157" fill-rule="evenodd" stroke="#073763" stroke-width="2.0" stroke-linejoin="round" stroke-linecap="butt"></path><path d="M903.2808 126.70504L912.35706 123.40157L903.2808 120.09811Z" fill-rule="evenodd" fill="#073763" stroke="#073763" stroke-width="2.0" stroke-linecap="butt"></path><path d="M726.2782 123.979004L727.2782 288.979L204.27821 287.979L204.27821 153.979" fill-rule="nonzero" stroke="#073763" stroke-width="2.0" stroke-linejoin="round" stroke-linecap="butt"></path><path d="M205.27821 154.979L321.27823 154.979" fill-rule="evenodd" stroke="#073763" stroke-width="2.0" stroke-linejoin="round" stroke-linecap="butt"></path><path d="M321.27823 158.28247L330.3544 154.979L321.27823 151.67554Z" fill-rule="evenodd" fill="#073763" stroke="#073763" stroke-width="2.0" stroke-linecap="butt"></path><path d="M656.5126 101.479004L656.5126 91.61963L658.0126 91.61963L658.0126 93.02588Q659.1063 91.40088 661.1532 91.40088Q662.0438 91.40088 662.7938 91.72119Q663.5438 92.041504 663.911 92.56494Q664.2782 93.08838 664.43445 93.791504Q664.5282 94.260254 664.5282 95.416504L664.5282 101.479004L662.8563 101.479004L662.8563 95.479004Q662.8563 94.46338 662.661 93.95557Q662.4657 93.447754 661.9657 93.15088Q661.4657 92.854004 660.7938 92.854004Q659.7313 92.854004 658.9579 93.52588Q658.18445 94.197754 658.18445 96.104004L658.18445 101.479004L656.5126 101.479004ZM666.2626 96.55713Q666.2626 93.822754 667.7938 92.49463Q669.05945 91.40088 670.8876 91.40088Q672.9188 91.40088 674.2079 92.73682Q675.49695 94.072754 675.49695 96.416504Q675.49695 98.322754 674.92664 99.40869Q674.3563 100.49463 673.2704 101.09619Q672.18445 101.697754 670.8876 101.697754Q668.8251 101.697754 667.5438 100.36963Q666.2626 99.041504 666.2626 96.55713ZM667.9813 96.55713Q667.9813 98.447754 668.80945 99.385254Q669.6376 100.322754 670.8876 100.322754Q672.1376 100.322754 672.9579 99.37744Q673.7782 98.43213 673.7782 96.49463Q673.7782 94.666504 672.9501 93.729004Q672.12195 92.791504 670.8876 92.791504Q669.6376 92.791504 668.80945 93.729004Q667.9813 94.666504 667.9813 96.55713ZM679.99695 101.479004L676.24695 91.61963L678.0126 91.61963L680.1376 97.52588Q680.4813 98.479004 680.7626 99.510254Q680.9813 98.729004 681.3876 97.635254L683.5751 91.61963L685.2938 91.61963L681.55945 101.479004L679.99695 101.479004ZM693.0282 100.260254Q692.0907 101.05713 691.2313 101.37744Q690.37195 101.697754 689.3876 101.697754Q687.7782 101.697754 686.9032 100.90869Q686.0282 100.11963 686.0282 98.885254Q686.0282 98.15088 686.3563 97.55713Q686.68445 96.96338 687.2157 96.604004Q687.74695 96.24463 688.4188 96.05713Q688.9188 95.916504 689.9032 95.80713Q691.93445 95.55713 692.8876 95.229004Q692.8876 94.885254 692.8876 94.791504Q692.8876 93.77588 692.4188 93.354004Q691.7782 92.791504 690.5126 92.791504Q689.3407 92.791504 688.7782 93.197754Q688.2157 93.604004 687.9501 94.666504L686.30945 94.43213Q686.5438 93.385254 687.05164 92.74463Q687.55945 92.104004 688.5204 91.75244Q689.4813 91.40088 690.7626 91.40088Q692.0282 91.40088 692.80945 91.697754Q693.5907 91.99463 693.9657 92.447754Q694.3407 92.90088 694.4813 93.58838Q694.5751 94.010254 694.5751 95.11963L694.5751 97.354004Q694.5751 99.68213 694.67664 100.29932Q694.7782 100.916504 695.1063 101.479004L693.3563 101.479004Q693.0907 100.96338 693.0282 100.260254ZM692.8876 96.541504Q691.9813 96.90088 690.1532 97.166504Q689.12195 97.30713 688.7001 97.49463Q688.2782 97.68213 688.0438 98.041504Q687.80945 98.40088 687.80945 98.83838Q687.80945 99.510254 688.31726 99.95557Q688.8251 100.40088 689.7938 100.40088Q690.7626 100.40088 691.5126 99.97119Q692.2626 99.541504 692.62195 98.822754Q692.8876 98.24463 692.8876 97.15088L692.8876 96.541504ZM689.4032 90.40088L690.6376 87.80713L692.8251 87.80713L690.7782 90.40088L689.4032 90.40088ZM702.1532 105.260254L702.1532 91.61963L703.68445 91.61963L703.68445 92.90088Q704.2157 92.15088 704.8954 91.77588Q705.5751 91.40088 706.5282 91.40088Q707.7938 91.40088 708.7626 92.04932Q709.7313 92.697754 710.2235 93.885254Q710.7157 95.072754 710.7157 96.479004Q710.7157 97.99463 710.1688 99.20557Q709.62195 100.416504 708.5907 101.05713Q707.55945 101.697754 706.4188 101.697754Q705.5751 101.697754 704.911 101.34619Q704.24695 100.99463 703.8251 100.46338L703.8251 105.260254L702.1532 105.260254ZM703.6688 96.604004Q703.6688 98.510254 704.44226 99.416504Q705.2157 100.322754 706.30945 100.322754Q707.4188 100.322754 708.2079 99.385254Q708.99695 98.447754 708.99695 96.46338Q708.99695 94.58838 708.2235 93.65088Q707.4501 92.71338 706.37195 92.71338Q705.30945 92.71338 704.48914 93.71338Q703.6688 94.71338 703.6688 96.604004ZM711.9032 96.55713Q711.9032 93.822754 713.43445 92.49463Q714.7001 91.40088 716.5282 91.40088Q718.55945 91.40088 719.8485 92.73682Q721.1376 94.072754 721.1376 96.416504Q721.1376 98.322754 720.56726 99.40869Q719.99695 100.49463 718.911 101.09619Q717.8251 101.697754 716.5282 101.697754Q714.4657 101.697754 713.18445 100.36963Q711.9032 99.041504 711.9032 96.55713ZM713.62195 96.55713Q713.62195 98.447754 714.4501 99.385254Q715.2782 100.322754 716.5282 100.322754Q717.7782 100.322754 718.5985 99.37744Q719.4188 98.43213 719.4188 96.49463Q719.4188 94.666504 718.5907 93.729004Q717.7626 92.791504 716.5282 92.791504Q715.2782 92.791504 714.4501 93.729004Q713.62195 94.666504 713.62195 96.55713ZM722.87195 101.479004L722.87195 87.885254L724.5438 87.885254L724.5438 101.479004L722.87195 101.479004ZM726.43445 96.55713Q726.43445 93.822754 727.9657 92.49463Q729.2313 91.40088 731.05945 91.40088Q733.0907 91.40088 734.37976 92.73682Q735.6688 94.072754 735.6688 96.416504Q735.6688 98.322754 735.0985 99.40869Q734.5282 100.49463 733.44226 101.09619Q732.3563 101.697754 731.05945 101.697754Q728.99695 101.697754 727.7157 100.36963Q726.43445 99.041504 726.43445 96.55713ZM728.1532 96.55713Q728.1532 98.447754 728.9813 99.385254Q729.80945 100.322754 731.05945 100.322754Q732.30945 100.322754 733.12976 99.37744Q733.9501 98.43213 733.9501 96.49463Q733.9501 94.666504 733.12195 93.729004Q732.2938 92.791504 731.05945 92.791504Q729.80945 92.791504 728.9813 93.729004Q728.1532 94.666504 728.1532 96.55713ZM737.43445 101.479004L737.43445 87.885254L739.1063 87.885254L739.1063 92.760254Q740.2782 91.40088 742.05945 91.40088Q743.1532 91.40088 743.9579 91.83057Q744.7626 92.260254 745.11414 93.02588Q745.4657 93.791504 745.4657 95.229004L745.4657 101.479004L743.7938 101.479004L743.7938 95.229004Q743.7938 93.979004 743.24695 93.40869Q742.7001 92.83838 741.7157 92.83838Q740.9657 92.83838 740.31726 93.22119Q739.6688 93.604004 739.3876 94.26807Q739.1063 94.93213 739.1063 96.08838L739.1063 101.479004L737.43445 101.479004ZM754.24695 100.260254Q753.30945 101.05713 752.4501 101.37744Q751.5907 101.697754 750.6063 101.697754Q748.99695 101.697754 748.12195 100.90869Q747.24695 100.11963 747.24695 98.885254Q747.24695 98.15088 747.5751 97.55713Q747.9032 96.96338 748.43445 96.604004Q748.9657 96.24463 749.6376 96.05713Q750.1376 95.916504 751.12195 95.80713Q753.1532 95.55713 754.1063 95.229004Q754.1063 94.885254 754.1063 94.791504Q754.1063 93.77588 753.6376 93.354004Q752.99695 92.791504 751.7313 92.791504Q750.55945 92.791504 749.99695 93.197754Q749.43445 93.604004 749.1688 94.666504L747.5282 94.43213Q747.7626 93.385254 748.2704 92.74463Q748.7782 92.104004 749.73914 91.75244Q750.7001 91.40088 751.9813 91.40088Q753.24695 91.40088 754.0282 91.697754Q754.80945 91.99463 755.18445 92.447754Q755.55945 92.90088 755.7001 93.58838Q755.7938 94.010254 755.7938 95.11963L755.7938 97.354004Q755.7938 99.68213 755.8954 100.29932Q755.99695 100.916504 756.3251 101.479004L754.5751 101.479004Q754.30945 100.96338 754.24695 100.260254ZM754.1063 96.541504Q753.2001 96.90088 751.37195 97.166504Q750.3407 97.30713 749.9188 97.49463Q749.49695 97.68213 749.2626 98.041504Q749.0282 98.40088 749.0282 98.83838Q749.0282 99.510254 749.536 99.95557Q750.0438 100.40088 751.0126 100.40088Q751.9813 100.40088 752.7313 99.97119Q753.4813 99.541504 753.8407 98.822754Q754.1063 98.24463 754.1063 97.15088L754.1063 96.541504ZM763.37195 101.479004L763.37195 87.885254L765.0438 87.885254L765.0438 95.635254L768.99695 91.61963L771.1532 91.61963L767.3876 95.27588L771.5282 101.479004L769.4657 101.479004L766.2157 96.447754L765.0438 97.572754L765.0438 101.479004L763.37195 101.479004ZM779.12195 100.260254Q778.18445 101.05713 777.3251 101.37744Q776.4657 101.697754 775.4813 101.697754Q773.87195 101.697754 772.99695 100.90869Q772.12195 100.11963 772.12195 98.885254Q772.12195 98.15088 772.4501 97.55713Q772.7782 96.96338 773.30945 96.604004Q773.8407 96.24463 774.5126 96.05713Q775.0126 95.916504 775.99695 95.80713Q778.0282 95.55713 778.9813 95.229004Q778.9813 94.885254 778.9813 94.791504Q778.9813 93.77588 778.5126 93.354004Q777.87195 92.791504 776.6063 92.791504Q775.43445 92.791504 774.87195 93.197754Q774.30945 93.604004 774.0438 94.666504L772.4032 94.43213Q772.6376 93.385254 773.1454 92.74463Q773.6532 92.104004 774.61414 91.75244Q775.5751 91.40088 776.8563 91.40088Q778.12195 91.40088 778.9032 91.697754Q779.68445 91.99463 780.05945 92.447754Q780.43445 92.90088 780.5751 93.58838Q780.6688 94.010254 780.6688 95.11963L780.6688 97.354004Q780.6688 99.68213 780.7704 100.29932Q780.87195 100.916504 781.2001 101.479004L779.4501 101.479004Q779.18445 100.96338 779.12195 100.260254ZM778.9813 96.541504Q778.0751 96.90088 776.24695 97.166504Q775.2157 97.30713 774.7938 97.49463Q774.37195 97.68213 774.1376 98.041504Q773.9032 98.40088 773.9032 98.83838Q773.9032 99.510254 774.411 99.95557Q774.9188 100.40088 775.8876 100.40088Q776.8563 100.40088 777.6063 99.97119Q778.3563 99.541504 778.7157 98.822754Q778.9813 98.24463 778.9813 97.15088L778.9813 96.541504ZM783.05945 101.479004L783.05945 91.61963L784.55945 91.61963L784.55945 93.010254Q785.0126 92.291504 785.786 91.84619Q786.55945 91.40088 787.5438 91.40088Q788.6376 91.40088 789.3407 91.854004Q790.0438 92.30713 790.3251 93.135254Q791.49695 91.40088 793.37195 91.40088Q794.8407 91.40088 795.62976 92.21338Q796.4188 93.02588 796.4188 94.71338L796.4188 101.479004L794.74695 101.479004L794.74695 95.27588Q794.74695 94.27588 794.5907 93.83057Q794.43445 93.385254 794.00476 93.11963Q793.5751 92.854004 792.99695 92.854004Q791.9657 92.854004 791.2782 93.541504Q790.5907 94.229004 790.5907 95.760254L790.5907 101.479004L788.9188 101.479004L788.9188 95.072754Q788.9188 93.96338 788.5126 93.40869Q788.1063 92.854004 787.1688 92.854004Q786.4657 92.854004 785.86414 93.22119Q785.2626 93.58838 784.99695 94.30713Q784.7313 95.02588 784.7313 96.36963L784.7313 101.479004L783.05945 101.479004ZM805.3563 98.30713L807.0751 98.52588Q806.6688 100.02588 805.56726 100.86182Q804.4657 101.697754 802.74695 101.697754Q800.5907 101.697754 799.3251 100.36963Q798.05945 99.041504 798.05945 96.635254Q798.05945 94.15088 799.3329 92.77588Q800.6063 91.40088 802.6532 91.40088Q804.6376 91.40088 805.8876 92.74463Q807.1376 94.08838 807.1376 96.541504Q807.1376 96.68213 807.12195 96.979004L799.7782 96.979004Q799.87195 98.604004 800.7001 99.46338Q801.5282 100.322754 802.7626 100.322754Q803.6688 100.322754 804.31726 99.84619Q804.9657 99.36963 805.3563 98.30713ZM799.87195 95.604004L805.37195 95.604004Q805.2626 94.36963 804.74695 93.74463Q803.9501 92.77588 802.6688 92.77588Q801.5282 92.77588 800.73914 93.54932Q799.9501 94.322754 799.87195 95.604004ZM808.9657 101.479004L808.9657 91.61963L810.4657 91.61963L810.4657 93.11963Q811.0438 92.072754 811.5282 91.73682Q812.0126 91.40088 812.6063 91.40088Q813.4501 91.40088 814.3251 91.947754L813.74695 93.49463Q813.1376 93.135254 812.5126 93.135254Q811.9657 93.135254 811.536 93.46338Q811.1063 93.791504 810.9188 94.36963Q810.6376 95.260254 810.6376 96.322754L810.6376 101.479004L808.9657 101.479004ZM815.12195 105.27588L814.9501 103.71338Q815.49695 103.854004 815.9032 103.854004Q816.4501 103.854004 816.786 103.666504Q817.12195 103.479004 817.3407 103.15088Q817.49695 102.90088 817.8407 101.90088Q817.8876 101.760254 817.99695 101.49463L814.2626 91.61963L816.05945 91.61963L818.1063 97.33838Q818.5126 98.416504 818.8251 99.61963Q819.1063 98.46338 819.5126 97.36963L821.6063 91.61963L823.2782 91.61963L819.5282 101.65088Q818.93445 103.27588 818.5907 103.885254Q818.1532 104.71338 817.5751 105.09619Q816.99695 105.479004 816.2001 105.479004Q815.7157 105.479004 815.12195 105.27588Z" fill-rule="nonzero" fill="#000000"></path><path d="M915.2808 50.645668L1197.958 50.645668L1197.958 196.15749L915.2808 196.15749Z" fill-rule="nonzero" fill="#cfe2f3" stroke="#073763" stroke-width="2.0" stroke-linejoin="round" stroke-linecap="butt"></path><path d="M973.46234 136.1672L973.46234 118.94845L975.3842 118.94845L975.3842 120.57345Q976.0717 119.62032 976.9233 119.14376Q977.77484 118.6672 978.9936 118.6672Q980.58734 118.6672 981.8061 119.48751Q983.02484 120.30782 983.64984 121.80782Q984.27484 123.30782 984.27484 125.08907Q984.27484 126.99532 983.58734 128.52658Q982.89984 130.05783 981.59515 130.87033Q980.29047 131.68283 978.85297 131.68283Q977.79047 131.68283 976.9545 131.23752Q976.1186 130.7922 975.5717 130.1047L975.5717 136.1672L973.46234 136.1672ZM975.3842 125.24532Q975.3842 127.65157 976.35297 128.80002Q977.3217 129.94846 978.71234 129.94846Q980.1186 129.94846 981.1186 128.76096Q982.1186 127.57345 982.1186 125.07345Q982.1186 122.69845 981.142 121.51095Q980.16547 120.32345 978.8061 120.32345Q977.4467 120.32345 976.41547 121.58126Q975.3842 122.83907 975.3842 125.24532ZM994.9467 129.87033Q993.77484 130.8547 992.6889 131.26877Q991.60297 131.68283 990.3686 131.68283Q988.3217 131.68283 987.22015 130.68283Q986.1186 129.68283 986.1186 128.12033Q986.1186 127.19845 986.53265 126.44845Q986.9467 125.69845 987.6186 125.23751Q988.29047 124.77657 989.1342 124.5422Q989.7592 124.38595 991.0092 124.2297Q993.5717 123.9172 994.77484 123.49532Q994.79047 123.07345 994.79047 122.94845Q994.79047 121.6672 994.1811 121.13595Q993.3842 120.4172 991.79047 120.4172Q990.29047 120.4172 989.58734 120.940636Q988.8842 121.46407 988.54047 122.7922L986.47797 122.51095Q986.7592 121.18282 987.39984 120.37032Q988.04047 119.55782 989.2592 119.11251Q990.47797 118.6672 992.08734 118.6672Q993.6811 118.6672 994.6811 119.0422Q995.6811 119.4172 996.14984 119.98751Q996.6186 120.55782 996.8061 121.43282Q996.89984 121.96407 996.89984 123.37032L996.89984 126.18282Q996.89984 129.12033 997.04047 129.90158Q997.1811 130.68283 997.5717 131.40158L995.3686 131.40158Q995.04047 130.74533 994.9467 129.87033ZM994.77484 125.15157Q993.6186 125.62032 991.3217 125.94845Q990.02484 126.13595 989.4858 126.37032Q988.9467 126.6047 988.65765 127.05782Q988.3686 127.51095 988.3686 128.05783Q988.3686 128.90158 989.0014 129.46408Q989.6342 130.02658 990.8686 130.02658Q992.08734 130.02658 993.04047 129.49533Q993.9936 128.96408 994.4311 128.0422Q994.77484 127.32345 994.77484 125.93282L994.77484 125.15157ZM1000.16547 131.40158L1000.16547 118.94845L1002.0717 118.94845L1002.0717 120.7297Q1003.4467 118.6672 1006.02484 118.6672Q1007.14984 118.6672 1008.09515 119.07345Q1009.04047 119.4797 1009.5092 120.13595Q1009.97797 120.7922 1010.16547 121.69845Q1010.29047 122.27657 1010.29047 123.74532L1010.29047 131.40158L1008.1811 131.40158L1008.1811 123.82345Q1008.1811 122.5422 1007.9311 121.90157Q1007.6811 121.26095 1007.0561 120.878136Q1006.4311 120.49532 1005.58734 120.49532Q1004.2436 120.49532 1003.2592 121.3547Q1002.27484 122.21407 1002.27484 124.6047L1002.27484 131.40158L1000.16547 131.40158ZM1012.6967 126.24532L1012.6967 124.12032L1019.1811 124.12032L1019.1811 126.24532L1012.6967 126.24532ZM1026.1185 129.51096L1026.431 131.37033Q1025.5404 131.57346 1024.8373 131.57346Q1023.6811 131.57346 1023.0483 131.20627Q1022.41547 130.83908 1022.15765 130.24533Q1021.89984 129.65158 1021.89984 127.76095L1021.89984 120.58907L1020.35297 120.58907L1020.35297 118.94845L1021.89984 118.94845L1021.89984 115.87032L1023.9936 114.6047L1023.9936 118.94845L1026.1185 118.94845L1026.1185 120.58907L1023.9936 120.58907L1023.9936 127.87032Q1023.9936 128.77658 1024.1107 129.0344Q1024.2279 129.2922 1024.4779 129.44064Q1024.7279 129.58908 1025.1967 129.58908Q1025.5404 129.58908 1026.1185 129.51096ZM1028.181 116.65157L1028.181 114.21407L1030.2904 114.21407L1030.2904 116.65157L1028.181 116.65157ZM1028.181 131.40158L1028.181 118.94845L1030.2904 118.94845L1030.2904 131.40158L1028.181 131.40158ZM1033.4623 131.40158L1033.4623 114.21407L1035.5717 114.21407L1035.5717 131.40158L1033.4623 131.40158ZM1043.4467 129.51096L1043.7592 131.37033Q1042.8685 131.57346 1042.1654 131.57346Q1041.0092 131.57346 1040.3763 131.20627Q1039.7435 130.83908 1039.4857 130.24533Q1039.2279 129.65158 1039.2279 127.76095L1039.2279 120.58907L1037.681 120.58907L1037.681 118.94845L1039.2279 118.94845L1039.2279 115.87032L1041.3217 114.6047L1041.3217 118.94845L1043.4467 118.94845L1043.4467 120.58907L1041.3217 120.58907L1041.3217 127.87032Q1041.3217 128.77658 1041.4388 129.0344Q1041.556 129.2922 1041.806 129.44064Q1042.056 129.58908 1042.5248 129.58908Q1042.8685 129.58908 1043.4467 129.51096ZM1052.1654 116.6672L1052.1654 114.21407L1054.2748 114.21407L1054.2748 116.6672L1052.1654 116.6672ZM1049.4779 136.2297L1049.8842 134.43283Q1050.5092 134.6047 1050.8842 134.6047Q1051.5248 134.6047 1051.8451 134.17502Q1052.1654 133.74533 1052.1654 132.0422L1052.1654 118.94845L1054.2748 118.94845L1054.2748 132.08908Q1054.2748 134.38596 1053.6654 135.27658Q1052.9154 136.44846 1051.1342 136.44846Q1050.2748 136.44846 1049.4779 136.2297ZM1066.0404 127.38595L1068.2123 127.6672Q1067.6967 129.57346 1066.306 130.62814Q1064.9154 131.68283 1062.7435 131.68283Q1060.0092 131.68283 1058.4076 130.00314Q1056.806 128.32346 1056.806 125.27657Q1056.806 122.13595 1058.4232 120.40157Q1060.0404 118.6672 1062.6185 118.6672Q1065.1185 118.6672 1066.7045 120.37032Q1068.2904 122.07345 1068.2904 125.15157Q1068.2904 125.33907 1068.2748 125.71407L1058.9935 125.71407Q1059.1029 127.76095 1060.1498 128.8547Q1061.1967 129.94846 1062.7592 129.94846Q1063.9154 129.94846 1064.7357 129.33908Q1065.556 128.7297 1066.0404 127.38595ZM1059.1029 123.9797L1066.056 123.9797Q1065.9154 122.4172 1065.2592 121.62032Q1064.2592 120.40157 1062.6498 120.40157Q1061.1967 120.40157 1060.2045 121.378136Q1059.2123 122.3547 1059.1029 123.9797ZM1078.931 131.40158L1078.931 129.82346Q1077.7435 131.68283 1075.4467 131.68283Q1073.9623 131.68283 1072.7123 130.86252Q1071.4623 130.0422 1070.7826 128.57346Q1070.1029 127.1047 1070.1029 125.18282Q1070.1029 123.32345 1070.7201 121.80782Q1071.3373 120.2922 1072.5795 119.4797Q1073.8217 118.6672 1075.3529 118.6672Q1076.4779 118.6672 1077.3607 119.14376Q1078.2435 119.62032 1078.7904 120.38595L1078.7904 114.21407L1080.8842 114.21407L1080.8842 131.40158L1078.931 131.40158ZM1072.2592 125.18282Q1072.2592 127.57345 1073.267 128.76096Q1074.2748 129.94846 1075.6498 129.94846Q1077.0404 129.94846 1078.0013 128.81564Q1078.9623 127.68282 1078.9623 125.37032Q1078.9623 122.80782 1077.9779 121.61251Q1076.9935 120.4172 1075.556 120.4172Q1074.1498 120.4172 1073.2045 121.565636Q1072.2592 122.71407 1072.2592 125.18282ZM1084.1967 131.40158L1084.1967 118.94845L1086.1029 118.94845L1086.1029 120.7297Q1087.4779 118.6672 1090.056 118.6672Q1091.181 118.6672 1092.1263 119.07345Q1093.0717 119.4797 1093.5404 120.13595Q1094.0092 120.7922 1094.1967 121.69845Q1094.3217 122.27657 1094.3217 123.74532L1094.3217 131.40158L1092.2123 131.40158L1092.2123 123.82345Q1092.2123 122.5422 1091.9623 121.90157Q1091.7123 121.26095 1091.0873 120.878136Q1090.4623 120.49532 1089.6185 120.49532Q1088.2748 120.49532 1087.2904 121.3547Q1086.306 122.21407 1086.306 124.6047L1086.306 131.40158L1084.1967 131.40158ZM1096.7592 125.18282Q1096.7592 121.71407 1098.681 120.05782Q1100.2904 118.6672 1102.6029 118.6672Q1105.1654 118.6672 1106.7904 120.3547Q1108.4154 122.0422 1108.4154 124.99532Q1108.4154 127.40157 1107.6967 128.77658Q1106.9779 130.15158 1105.6029 130.9172Q1104.2279 131.68283 1102.6029 131.68283Q1099.9779 131.68283 1098.3685 130.00314Q1096.7592 128.32346 1096.7592 125.18282ZM1098.931 125.18282Q1098.931 127.57345 1099.9701 128.76096Q1101.0092 129.94846 1102.6029 129.94846Q1104.1654 129.94846 1105.2123 128.75314Q1106.2592 127.55782 1106.2592 125.1047Q1106.2592 122.7922 1105.2045 121.6047Q1104.1498 120.4172 1102.6029 120.4172Q1101.0092 120.4172 1099.9701 121.6047Q1098.931 122.7922 1098.931 125.18282ZM1115.5092 129.51096L1115.8217 131.37033Q1114.931 131.57346 1114.2279 131.57346Q1113.0717 131.57346 1112.4388 131.20627Q1111.806 130.83908 1111.5482 130.24533Q1111.2904 129.65158 1111.2904 127.76095L1111.2904 120.58907L1109.7435 120.58907L1109.7435 118.94845L1111.2904 118.94845L1111.2904 115.87032L1113.3842 114.6047L1113.3842 118.94845L1115.5092 118.94845L1115.5092 120.58907L1113.3842 120.58907L1113.3842 127.87032Q1113.3842 128.77658 1113.5013 129.0344Q1113.6185 129.2922 1113.8685 129.44064Q1114.1185 129.58908 1114.5873 129.58908Q1114.931 129.58908 1115.5092 129.51096ZM1117.5717 131.40158L1117.5717 114.21407L1119.681 114.21407L1119.681 124.01095L1124.681 118.94845L1127.3998 118.94845L1122.6498 123.57345L1127.8842 131.40158L1125.2904 131.40158L1121.1654 125.0422L1119.681 126.46407L1119.681 131.40158L1117.5717 131.40158ZM1137.681 129.87033Q1136.5092 130.8547 1135.4232 131.26877Q1134.3373 131.68283 1133.1029 131.68283Q1131.056 131.68283 1129.9545 130.68283Q1128.8529 129.68283 1128.8529 128.12033Q1128.8529 127.19845 1129.267 126.44845Q1129.681 125.69845 1130.3529 125.23751Q1131.0248 124.77657 1131.8685 124.5422Q1132.4935 124.38595 1133.7435 124.2297Q1136.306 123.9172 1137.5092 123.49532Q1137.5248 123.07345 1137.5248 122.94845Q1137.5248 121.6672 1136.9154 121.13595Q1136.1185 120.4172 1134.5248 120.4172Q1133.0248 120.4172 1132.3217 120.940636Q1131.6185 121.46407 1131.2748 122.7922L1129.2123 122.51095Q1129.4935 121.18282 1130.1342 120.37032Q1130.7748 119.55782 1131.9935 119.11251Q1133.2123 118.6672 1134.8217 118.6672Q1136.4154 118.6672 1137.4154 119.0422Q1138.4154 119.4172 1138.8842 119.98751Q1139.3529 120.55782 1139.5404 121.43282Q1139.6342 121.96407 1139.6342 123.37032L1139.6342 126.18282Q1139.6342 129.12033 1139.7748 129.90158Q1139.9154 130.68283 1140.306 131.40158L1138.1029 131.40158Q1137.7748 130.74533 1137.681 129.87033ZM1137.5092 125.15157Q1136.3529 125.62032 1134.056 125.94845Q1132.7592 126.13595 1132.2201 126.37032Q1131.681 126.6047 1131.392 127.05782Q1131.1029 127.51095 1131.1029 128.05783Q1131.1029 128.90158 1131.7357 129.46408Q1132.3685 130.02658 1133.6029 130.02658Q1134.8217 130.02658 1135.7748 129.49533Q1136.7279 128.96408 1137.1654 128.0422Q1137.5092 127.32345 1137.5092 125.93282L1137.5092 125.15157Z" fill-rule="nonzero" fill="#000000"></path><path d="M428.7721 117.39875L428.7721 104.945625L430.66272 104.945625L430.66272 106.83625Q431.3971 105.508125 432.01428 105.08625Q432.63147 104.664375 433.36584 104.664375Q434.42834 104.664375 435.53772 105.351875L434.80334 107.305Q434.03772 106.851875 433.25647 106.851875Q432.56897 106.851875 432.01428 107.26594Q431.4596 107.68 431.22522 108.414375Q430.88147 109.539375 430.88147 110.883125L430.88147 117.39875L428.7721 117.39875ZM445.30334 113.383125L447.47522 113.664375Q446.9596 115.570625 445.56897 116.62531Q444.17834 117.68 442.00647 117.68Q439.2721 117.68 437.67053 116.00031Q436.06897 114.320625 436.06897 111.27375Q436.06897 108.133125 437.68616 106.39875Q439.30334 104.664375 441.88147 104.664375Q444.38147 104.664375 445.9674 106.3675Q447.55334 108.070625 447.55334 111.14875Q447.55334 111.33625 447.53772 111.71125L438.25647 111.71125Q438.36584 113.758125 439.41272 114.851875Q440.4596 115.945625 442.0221 115.945625Q443.17834 115.945625 443.99866 115.33625Q444.81897 114.726875 445.30334 113.383125ZM438.36584 109.976875L445.31897 109.976875Q445.17834 108.414375 444.5221 107.6175Q443.5221 106.39875 441.91272 106.39875Q440.4596 106.39875 439.4674 107.37531Q438.47522 108.351875 438.36584 109.976875ZM449.74084 118.43L451.78772 118.7425Q451.91272 119.68 452.50647 120.1175Q453.28772 120.71125 454.6471 120.71125Q456.11584 120.71125 456.91272 120.12531Q457.7096 119.539375 457.99084 118.476875Q458.1471 117.83625 458.13147 115.77375Q456.75647 117.39875 454.69397 117.39875Q452.13147 117.39875 450.72522 115.54719Q449.31897 113.695625 449.31897 111.101875Q449.31897 109.320625 449.9596 107.81281Q450.60022 106.305 451.82678 105.48469Q453.05334 104.664375 454.7096 104.664375Q456.91272 104.664375 458.3346 106.445625L458.3346 104.945625L460.28772 104.945625L460.28772 115.71125Q460.28772 118.6175 459.69397 119.82844Q459.10022 121.039375 457.81897 121.7425Q456.53772 122.445625 454.66272 122.445625Q452.42834 122.445625 451.06116 121.445625Q449.69397 120.445625 449.74084 118.43ZM451.47522 110.945625Q451.47522 113.39875 452.45178 114.52375Q453.42834 115.64875 454.8971 115.64875Q456.35022 115.64875 457.3346 114.53156Q458.31897 113.414375 458.31897 111.02375Q458.31897 108.7425 457.30334 107.57844Q456.28772 106.414375 454.85022 106.414375Q453.44397 106.414375 452.4596 107.555Q451.47522 108.695625 451.47522 110.945625ZM471.63147 117.39875L471.63147 115.570625Q470.17834 117.68 467.69397 117.68Q466.5846 117.68 465.63147 117.258125Q464.67834 116.83625 464.2174 116.195625Q463.75647 115.555 463.56897 114.633125Q463.42834 114.008125 463.42834 112.664375L463.42834 104.945625L465.53772 104.945625L465.53772 111.851875Q465.53772 113.508125 465.67834 114.08625Q465.86584 114.914375 466.51428 115.39094Q467.16272 115.8675 468.11584 115.8675Q469.05334 115.8675 469.88928 115.37531Q470.72522 114.883125 471.06897 114.04719Q471.41272 113.21125 471.41272 111.6175L471.41272 104.945625L473.5221 104.945625L473.5221 117.39875L471.63147 117.39875ZM476.7721 117.39875L476.7721 100.21125L478.88147 100.21125L478.88147 117.39875L476.7721 117.39875ZM490.2721 115.8675Q489.10022 116.851875 488.01428 117.26594Q486.92834 117.68 485.69397 117.68Q483.6471 117.68 482.54553 116.68Q481.44397 115.68 481.44397 114.1175Q481.44397 113.195625 481.85803 112.445625Q482.2721 111.695625 482.94397 111.23469Q483.61584 110.77375 484.4596 110.539375Q485.0846 110.383125 486.3346 110.226875Q488.8971 109.914375 490.10022 109.4925Q490.11584 109.070625 490.11584 108.945625Q490.11584 107.664375 489.50647 107.133125Q488.7096 106.414375 487.11584 106.414375Q485.61584 106.414375 484.91272 106.93781Q484.2096 107.46125 483.86584 108.789375L481.80334 108.508125Q482.0846 107.18 482.72522 106.3675Q483.36584 105.555 484.5846 105.10969Q485.80334 104.664375 487.41272 104.664375Q489.00647 104.664375 490.00647 105.039375Q491.00647 105.414375 491.47522 105.98469Q491.94397 106.555 492.13147 107.43Q492.22522 107.96125 492.22522 109.3675L492.22522 112.18Q492.22522 115.1175 492.36584 115.89875Q492.50647 116.68 492.8971 117.39875L490.69397 117.39875Q490.36584 116.7425 490.2721 115.8675ZM490.10022 111.14875Q488.94397 111.6175 486.6471 111.945625Q485.35022 112.133125 484.81116 112.3675Q484.2721 112.601875 483.98303 113.055Q483.69397 113.508125 483.69397 114.055Q483.69397 114.89875 484.32678 115.46125Q484.9596 116.02375 486.19397 116.02375Q487.41272 116.02375 488.36584 115.4925Q489.31897 114.96125 489.75647 114.039375Q490.10022 113.320625 490.10022 111.93L490.10022 111.14875ZM486.17834 103.39875L487.72522 100.1175L490.49084 100.1175L487.91272 103.39875L486.17834 103.39875ZM500.10022 115.508125L500.41272 117.3675Q499.5221 117.570625 498.81897 117.570625Q497.66272 117.570625 497.0299 117.20344Q496.3971 116.83625 496.13928 116.2425Q495.88147 115.64875 495.88147 113.758125L495.88147 106.58625L494.3346 106.58625L494.3346 104.945625L495.88147 104.945625L495.88147 101.8675L497.97522 100.601875L497.97522 104.945625L500.10022 104.945625L500.10022 106.58625L497.97522 106.58625L497.97522 113.8675Q497.97522 114.77375 498.0924 115.03156Q498.2096 115.289375 498.4596 115.43781Q498.7096 115.58625 499.17834 115.58625Q499.5221 115.58625 500.10022 115.508125ZM501.38147 111.18Q501.38147 107.71125 503.30334 106.055Q504.91272 104.664375 507.22522 104.664375Q509.78772 104.664375 511.41272 106.351875Q513.0377 108.039375 513.0377 110.9925Q513.0377 113.39875 512.319 114.77375Q511.60022 116.14875 510.22522 116.914375Q508.85022 117.68 507.22522 117.68Q504.60022 117.68 502.99084 116.00031Q501.38147 114.320625 501.38147 111.18ZM503.55334 111.18Q503.55334 113.570625 504.5924 114.758125Q505.63147 115.945625 507.22522 115.945625Q508.78772 115.945625 509.8346 114.75031Q510.88147 113.555 510.88147 111.101875Q510.88147 108.789375 509.82678 107.601875Q508.7721 106.414375 507.22522 106.414375Q505.63147 106.414375 504.5924 107.601875Q503.55334 108.789375 503.55334 111.18ZM515.49084 117.39875L515.49084 104.945625L517.3815 104.945625L517.3815 106.83625Q518.11584 105.508125 518.73303 105.08625Q519.3502 104.664375 520.0846 104.664375Q521.1471 104.664375 522.2565 105.351875L521.5221 107.305Q520.7565 106.851875 519.9752 106.851875Q519.2877 106.851875 518.73303 107.26594Q518.17834 107.68 517.944 108.414375Q517.6002 109.539375 517.6002 110.883125L517.6002 117.39875L515.49084 117.39875Z" fill-rule="nonzero" fill="#000000"></path><path d="M370.81897 150.44562Q369.0846 148.2425 367.87366 145.28937Q366.66272 142.33624 366.66272 139.18Q366.66272 136.38312 367.56897 133.83624Q368.61584 130.8675 370.81897 127.93L372.3346 127.93Q370.91272 130.3675 370.4596 131.39874Q369.74084 133.02374 369.3346 134.77374Q368.8346 136.97687 368.8346 139.18Q368.8346 144.82062 372.3346 150.44562L370.81897 150.44562ZM374.78772 150.16437L374.78772 132.94562L376.7096 132.94562L376.7096 134.57062Q377.3971 133.6175 378.24866 133.14093Q379.10022 132.66437 380.31897 132.66437Q381.91272 132.66437 383.13147 133.48468Q384.35022 134.305 384.97522 135.805Q385.60022 137.305 385.60022 139.08624Q385.60022 140.9925 384.91272 142.52374Q384.22522 144.055 382.92053 144.8675Q381.61584 145.68 380.17834 145.68Q379.11584 145.68 378.2799 145.23468Q377.44397 144.78937 376.8971 144.10187L376.8971 150.16437L374.78772 150.16437ZM376.7096 139.2425Q376.7096 141.64874 377.67834 142.79718Q378.6471 143.94562 380.03772 143.94562Q381.44397 143.94562 382.44397 142.75812Q383.44397 141.57062 383.44397 139.07062Q383.44397 136.69562 382.4674 135.50812Q381.49084 134.32062 380.13147 134.32062Q378.7721 134.32062 377.74084 135.57843Q376.7096 136.83624 376.7096 139.2425ZM388.11584 145.39874L388.11584 132.94562L390.00647 132.94562L390.00647 134.83624Q390.74084 133.50812 391.35803 133.08624Q391.97522 132.66437 392.7096 132.66437Q393.7721 132.66437 394.88147 133.35187L394.1471 135.305Q393.38147 134.85187 392.60022 134.85187Q391.91272 134.85187 391.35803 135.26593Q390.80334 135.68 390.56897 136.41437Q390.22522 137.53937 390.22522 138.88312L390.22522 145.39874L388.11584 145.39874ZM395.3346 139.18Q395.3346 135.71124 397.25647 134.055Q398.86584 132.66437 401.17834 132.66437Q403.74084 132.66437 405.36584 134.35187Q406.99084 136.03937 406.99084 138.9925Q406.99084 141.39874 406.2721 142.77374Q405.55334 144.14874 404.17834 144.91437Q402.80334 145.68 401.17834 145.68Q398.55334 145.68 396.94397 144.0003Q395.3346 142.32062 395.3346 139.18ZM397.50647 139.18Q397.50647 141.57062 398.54553 142.75812Q399.5846 143.94562 401.17834 143.94562Q402.74084 143.94562 403.78772 142.7503Q404.8346 141.555 404.8346 139.10187Q404.8346 136.78937 403.7799 135.60187Q402.72522 134.41437 401.17834 134.41437Q399.5846 134.41437 398.54553 135.60187Q397.50647 136.78937 397.50647 139.18ZM417.60022 140.83624L419.67834 141.10187Q419.3346 143.25812 417.93616 144.46906Q416.53772 145.68 414.49084 145.68Q411.94397 145.68 410.38928 144.00812Q408.8346 142.33624 408.8346 139.22687Q408.8346 137.21124 409.50647 135.69562Q410.17834 134.18 411.53772 133.42218Q412.8971 132.66437 414.50647 132.66437Q416.53772 132.66437 417.82678 133.69562Q419.11584 134.72687 419.47522 136.60187L417.42834 136.93Q417.13147 135.66437 416.38928 135.03156Q415.6471 134.39874 414.5846 134.39874Q412.99084 134.39874 411.99866 135.54718Q411.00647 136.69562 411.00647 139.16437Q411.00647 141.66437 411.9674 142.805Q412.92834 143.94562 414.47522 143.94562Q415.7096 143.94562 416.54553 143.18Q417.38147 142.41437 417.60022 140.83624ZM430.00647 141.38312L432.17834 141.66437Q431.66272 143.57062 430.2721 144.6253Q428.88147 145.68 426.7096 145.68Q423.97522 145.68 422.37366 144.0003Q420.7721 142.32062 420.7721 139.27374Q420.7721 136.13312 422.38928 134.39874Q424.00647 132.66437 426.5846 132.66437Q429.0846 132.66437 430.67053 134.3675Q432.25647 136.07062 432.25647 139.14874Q432.25647 139.33624 432.24084 139.71124L422.9596 139.71124Q423.06897 141.75812 424.11584 142.85187Q425.16272 143.94562 426.72522 143.94562Q427.88147 143.94562 428.70178 143.33624Q429.5221 142.72687 430.00647 141.38312ZM423.06897 137.97687L430.0221 137.97687Q429.88147 136.41437 429.22522 135.6175Q428.22522 134.39874 426.61584 134.39874Q425.16272 134.39874 424.17053 135.3753Q423.17834 136.35187 423.06897 137.97687ZM433.97522 141.68L436.06897 141.35187Q436.24084 142.60187 437.04553 143.27374Q437.85022 143.94562 439.28772 143.94562Q440.74084 143.94562 441.44397 143.35187Q442.1471 142.75812 442.1471 141.96124Q442.1471 141.2425 441.5221 140.83624Q441.10022 140.555 439.36584 140.1175Q437.05334 139.53937 436.1549 139.10968Q435.25647 138.68 434.79553 137.92218Q434.3346 137.16437 434.3346 136.25812Q434.3346 135.43 434.7174 134.71906Q435.10022 134.00812 435.75647 133.53937Q436.24084 133.18 437.0924 132.92218Q437.94397 132.66437 438.91272 132.66437Q440.38147 132.66437 441.49084 133.08624Q442.60022 133.50812 443.12366 134.23468Q443.6471 134.96124 443.85022 136.16437L441.78772 136.44562Q441.6471 135.47687 440.97522 134.9378Q440.30334 134.39874 439.06897 134.39874Q437.61584 134.39874 436.99084 134.88312Q436.36584 135.3675 436.36584 136.00812Q436.36584 136.41437 436.63147 136.7425Q436.88147 137.08624 437.44397 137.305Q437.75647 137.43 439.30334 137.85187Q441.53772 138.44562 442.42053 138.82843Q443.30334 139.21124 443.81116 139.9378Q444.31897 140.66437 444.31897 141.7425Q444.31897 142.78937 443.70178 143.72687Q443.0846 144.66437 441.92834 145.17218Q440.7721 145.68 439.30334 145.68Q436.88147 145.68 435.60803 144.67218Q434.3346 143.66437 433.97522 141.68ZM445.97522 141.68L448.06897 141.35187Q448.24084 142.60187 449.04553 143.27374Q449.85022 143.94562 451.28772 143.94562Q452.74084 143.94562 453.44397 143.35187Q454.1471 142.75812 454.1471 141.96124Q454.1471 141.2425 453.5221 140.83624Q453.10022 140.555 451.36584 140.1175Q449.05334 139.53937 448.1549 139.10968Q447.25647 138.68 446.79553 137.92218Q446.3346 137.16437 446.3346 136.25812Q446.3346 135.43 446.7174 134.71906Q447.10022 134.00812 447.75647 133.53937Q448.24084 133.18 449.0924 132.92218Q449.94397 132.66437 450.91272 132.66437Q452.38147 132.66437 453.49084 133.08624Q454.60022 133.50812 455.12366 134.23468Q455.6471 134.96124 455.85022 136.16437L453.78772 136.44562Q453.6471 135.47687 452.97522 134.9378Q452.30334 134.39874 451.06897 134.39874Q449.61584 134.39874 448.99084 134.88312Q448.36584 135.3675 448.36584 136.00812Q448.36584 136.41437 448.63147 136.7425Q448.88147 137.08624 449.44397 137.305Q449.75647 137.43 451.30334 137.85187Q453.53772 138.44562 454.42053 138.82843Q455.30334 139.21124 455.81116 139.9378Q456.31897 140.66437 456.31897 141.7425Q456.31897 142.78937 455.70178 143.72687Q455.0846 144.66437 453.92834 145.17218Q452.7721 145.68 451.30334 145.68Q448.88147 145.68 447.60803 144.67218Q446.3346 143.66437 445.97522 141.68ZM459.06897 145.39874L459.06897 128.21124L461.3971 128.21124L470.42834 141.71124L470.42834 128.21124L472.60022 128.21124L472.60022 145.39874L470.2721 145.39874L461.25647 131.89874L461.25647 145.39874L459.06897 145.39874ZM484.67834 141.38312L486.85022 141.66437Q486.3346 143.57062 484.94397 144.6253Q483.55334 145.68 481.38147 145.68Q478.6471 145.68 477.04553 144.0003Q475.44397 142.32062 475.44397 139.27374Q475.44397 136.13312 477.06116 134.39874Q478.67834 132.66437 481.25647 132.66437Q483.75647 132.66437 485.3424 134.3675Q486.92834 136.07062 486.92834 139.14874Q486.92834 139.33624 486.91272 139.71124L477.63147 139.71124Q477.74084 141.75812 478.78772 142.85187Q479.8346 143.94562 481.3971 143.94562Q482.55334 143.94562 483.37366 143.33624Q484.19397 142.72687 484.67834 141.38312ZM477.74084 137.97687L484.69397 137.97687Q484.55334 136.41437 483.8971 135.6175Q482.8971 134.39874 481.28772 134.39874Q479.8346 134.39874 478.8424 135.3753Q477.85022 136.35187 477.74084 137.97687ZM488.0846 145.39874L492.63147 138.93L488.42834 132.94562L491.06897 132.94562L492.97522 135.8675Q493.5221 136.69562 493.85022 137.25812Q494.36584 136.4925 494.78772 135.89874L496.8971 132.94562L499.41272 132.94562L495.11584 138.805L499.74084 145.39874L497.1471 145.39874L494.60022 141.52374L493.91272 140.4925L490.6471 145.39874L488.0846 145.39874ZM506.10022 143.50812L506.41272 145.3675Q505.5221 145.57062 504.81897 145.57062Q503.66272 145.57062 503.0299 145.20343Q502.3971 144.83624 502.13928 144.2425Q501.88147 143.64874 501.88147 141.75812L501.88147 134.58624L500.3346 134.58624L500.3346 132.94562L501.88147 132.94562L501.88147 129.8675L503.97522 128.60187L503.97522 132.94562L506.10022 132.94562L506.10022 134.58624L503.97522 134.58624L503.97522 141.8675Q503.97522 142.77374 504.0924 143.03156Q504.2096 143.28937 504.4596 143.4378Q504.7096 143.58624 505.17834 143.58624Q505.5221 143.58624 506.10022 143.50812ZM508.55334 145.39874L508.55334 128.21124L520.1471 128.21124L520.1471 130.2425L510.8346 130.2425L510.8346 135.57062L518.8971 135.57062L518.8971 137.58624L510.8346 137.58624L510.8346 145.39874L508.55334 145.39874ZM522.80334 145.39874L522.80334 132.94562L524.694 132.94562L524.694 134.83624Q525.42834 133.50812 526.04553 133.08624Q526.6627 132.66437 527.3971 132.66437Q528.4596 132.66437 529.569 133.35187L528.8346 135.305Q528.069 134.85187 527.2877 134.85187Q526.6002 134.85187 526.04553 135.26593Q525.49084 135.68 525.2565 136.41437Q524.9127 137.53937 524.9127 138.88312L524.9127 145.39874L522.80334 145.39874ZM538.944 143.8675Q537.7721 144.85187 536.68616 145.26593Q535.6002 145.68 534.36584 145.68Q532.319 145.68 531.2174 144.68Q530.11584 143.68 530.11584 142.1175Q530.11584 141.19562 530.5299 140.44562Q530.944 139.69562 531.61584 139.23468Q532.2877 138.77374 533.1315 138.53937Q533.7565 138.38312 535.0065 138.22687Q537.569 137.91437 538.7721 137.4925Q538.7877 137.07062 538.7877 136.94562Q538.7877 135.66437 538.17834 135.13312Q537.3815 134.41437 535.7877 134.41437Q534.2877 134.41437 533.5846 134.9378Q532.8815 135.46124 532.5377 136.78937L530.4752 136.50812Q530.7565 135.18 531.3971 134.3675Q532.0377 133.555 533.2565 133.10968Q534.4752 132.66437 536.0846 132.66437Q537.67834 132.66437 538.67834 133.03937Q539.67834 133.41437 540.1471 133.98468Q540.61584 134.555 540.80334 135.43Q540.8971 135.96124 540.8971 137.3675L540.8971 140.18Q540.8971 143.1175 541.0377 143.89874Q541.17834 144.68 541.569 145.39874L539.36584 145.39874Q539.0377 144.7425 538.944 143.8675ZM538.7721 139.14874Q537.61584 139.6175 535.319 139.94562Q534.0221 140.13312 533.48303 140.3675Q532.944 140.60187 532.6549 141.055Q532.36584 141.50812 532.36584 142.055Q532.36584 142.89874 532.99866 143.46124Q533.6315 144.02374 534.86584 144.02374Q536.0846 144.02374 537.0377 143.4925Q537.99084 142.96124 538.42834 142.03937Q538.7721 141.32062 538.7721 139.93L538.7721 139.14874ZM544.1627 145.39874L544.1627 132.94562L546.05334 132.94562L546.05334 134.69562Q546.6471 133.78937 547.61584 133.22687Q548.5846 132.66437 549.8346 132.66437Q551.2096 132.66437 552.0924 133.2425Q552.9752 133.82062 553.3502 134.85187Q554.819 132.66437 557.194 132.66437Q559.0377 132.66437 560.0377 133.69562Q561.0377 134.72687 561.0377 136.85187L561.0377 145.39874L558.92834 145.39874L558.92834 137.555Q558.92834 136.28937 558.7252 135.73468Q558.5221 135.18 557.98303 134.83624Q557.444 134.4925 556.7252 134.4925Q555.4127 134.4925 554.54553 135.3675Q553.67834 136.2425 553.67834 138.16437L553.67834 145.39874L551.569 145.39874L551.569 137.305Q551.569 135.89874 551.05334 135.19562Q550.5377 134.4925 549.36584 134.4925Q548.4752 134.4925 547.7174 134.96124Q546.9596 135.43 546.61584 136.33624Q546.2721 137.2425 546.2721 138.94562L546.2721 145.39874L544.1627 145.39874ZM572.694 141.38312L574.86584 141.66437Q574.3502 143.57062 572.9596 144.6253Q571.569 145.68 569.3971 145.68Q566.6627 145.68 565.06116 144.0003Q563.4596 142.32062 563.4596 139.27374Q563.4596 136.13312 565.0768 134.39874Q566.694 132.66437 569.2721 132.66437Q571.7721 132.66437 573.35803 134.3675Q574.944 136.07062 574.944 139.14874Q574.944 139.33624 574.92834 139.71124L565.6471 139.71124Q565.7565 141.75812 566.80334 142.85187Q567.8502 143.94562 569.4127 143.94562Q570.569 143.94562 571.3893 143.33624Q572.2096 142.72687 572.694 141.38312ZM565.7565 137.97687L572.7096 137.97687Q572.569 136.41437 571.9127 135.6175Q570.9127 134.39874 569.30334 134.39874Q567.8502 134.39874 566.85803 135.3753Q565.86584 136.35187 565.7565 137.97687ZM578.8971 150.44562L577.3815 150.44562Q580.8815 144.82062 580.8815 139.18Q580.8815 136.97687 580.3815 134.82062Q579.99084 133.055 579.2721 131.44562Q578.819 130.38312 577.3815 127.93L578.8971 127.93Q581.1002 130.8675 582.1471 133.83624Q583.05334 136.38312 583.05334 139.18Q583.05334 142.33624 581.8424 145.28937Q580.6315 148.2425 578.8971 150.44562Z" fill-rule="nonzero" fill="#000000"></path></svg>

